<svg xmlns="http://www.w3.org/2000/svg" width="384" height="48" viewBox="0 0 384 48">
  <!-- HearthVale original environmental atlas. 8 cells across, 48px square. -->
  <defs><linearGradient id="leaf" x1="0" y1="0" x2="0" y2="1"><stop stop-color="#9dcb72"/><stop offset="1" stop-color="#356848"/></linearGradient><linearGradient id="stone" x1="0" y1="0" x2="0" y2="1"><stop stop-color="#a8bac3"/><stop offset="1" stop-color="#526878"/></linearGradient></defs>
  <rect width="384" height="48" fill="#00ff00"/>
  <g transform="translate(0)"><ellipse cx="24" cy="42" rx="18" ry="4" fill="#244437" opacity=".35"/><path d="M21 41h7V25h-7z" fill="#75472e"/><circle cx="24" cy="18" r="15" fill="url(#leaf)" stroke="#28533b" stroke-width="2"/><circle cx="14" cy="23" r="8" fill="#78af61"/><circle cx="34" cy="24" r="8" fill="#659e59"/><path d="M24 10v17" stroke="#b6d787" opacity=".5"/></g>
  <g transform="translate(48)"><path d="M8 40h32V23H8z" fill="#805444" stroke="#422f2c" stroke-width="2"/><path d="M5 24l19-15 19 15z" fill="#bd6b4f" stroke="#58372e" stroke-width="2"/><path d="M21 32h7v8h-7z" fill="#3b2b2d"/><path d="M9 23h31" stroke="#f0b36a" stroke-width="2"/></g>
  <g transform="translate(96)"><path d="M7 38h34v5H7z" fill="#746459"/><path d="M11 36l7-23h12l8 23z" fill="url(#stone)" stroke="#465d69" stroke-width="2"/><path d="M17 13l5-8 3 8" fill="#d4e3e8"/><path d="M16 29l18-6M17 19l16 10" stroke="#d7e9ed" opacity=".45" stroke-width="2"/></g>
  <g transform="translate(144)"><path d="M7 41h34" stroke="#4f3529" stroke-width="5"/><path d="M12 40V10m12 30V10m12 30V10" stroke="#8e6544" stroke-width="4"/><path d="M9 12h30" stroke="#c3925d" stroke-width="4"/><path d="M10 28h28" stroke="#c3925d" stroke-width="3"/></g>
  <g transform="translate(192)"><path d="M8 39h32v4H8z" fill="#73513a"/><rect x="10" y="19" width="28" height="20" rx="2" fill="#a87343" stroke="#593d2c" stroke-width="2"/><path d="M10 25h28M17 19v20M30 19v20" stroke="#e2b56d" opacity=".7" stroke-width="2"/></g>
  <g transform="translate(240)"><path d="M21 43h6V24h-6z" fill="#5b3d2d"/><path d="M12 25h24l-4-16H16z" fill="#8e583a" stroke="#4c322a" stroke-width="2"/><path d="M15 25h18" stroke="#e6b35f" stroke-width="2"/><circle cx="24" cy="14" r="7" fill="#ffe49a" opacity=".9"/><circle cx="24" cy="14" r="14" fill="#ffc76d" opacity=".18"/></g>
  <g transform="translate(288)"><path d="M8 40h32" stroke="#39504b" stroke-width="5"/><path d="M13 39l7-24 8 4 7 20z" fill="#5d856e" stroke="#315b4b" stroke-width="2"/><path d="M20 15l5-9 6 13" fill="#a6f3e9" stroke="#5eaeb0" stroke-width="2"/><path d="M22 22l-4 12m7-12l5 11" stroke="#b2fbf1" opacity=".65" stroke-width="2"/></g>
  <g transform="translate(336)"><ellipse cx="24" cy="39" rx="17" ry="5" fill="#27384a" opacity=".45"/><ellipse cx="24" cy="25" rx="15" ry="20" fill="#3d70b4" opacity=".35" stroke="#91d7ff" stroke-width="2"/><ellipse cx="24" cy="25" rx="8" ry="15" fill="#d1edff" opacity=".6"/><path d="M24 7v36" stroke="#e5f7ff" opacity=".65" stroke-width="2"/></g>
</svg>
